<svg id="Layer_1" data-name="Layer 1" xmlns="http://www.w3.org/2000/svg" viewBox="0 0 357.29 383.86"><path d="M1102.45,731.94H793.59c-3.79-1.13-7.74-1.74-10.1-5.68a16.67,16.67,0,0,1-2.8-8c-.05-1.38-.07-2.75-.07-4.12q0-102.82,0-205.65c0-4.43,0-8.75,3.61-12.13a12.22,12.22,0,0,1,8.67-3.78c7.74,0,15.48-.19,23.22.12,9.08-.62,18.13.33,27.2.44,4.1.05,8.2-.07,12.3-.25a170,170,0,0,1,25.62-1.06c1.81.06,3.79-.29,5.22,1.34.45,2.75-1.67,2.56-3.27,2.65-4,.24-7.95.06-11.75.08,2.73,4.85,5.45,9.74,7.94,14.74,2.84,5.69,6,11.18,8.85,16.88a5.26,5.26,0,0,0,5.27,3.33,91,91,0,0,0,10.82-.46c3,.27,6,1.44,9.1.54,2.61-.22,5.23-.16,7.85-.16H1066a46.79,46.79,0,0,0,7.1-.26c5.83.8,11.68,0,17.52.26,2.87.1,5.74,0,8.6.25,1.7.05,3.42-.31,5.11.23,4.66,3.14,9.41,6.18,10.61,12.34a26.25,26.25,0,0,1,.46,4.83q.07,83.83,0,167.67a19.67,19.67,0,0,1-.75,5.53C1112.82,727.77,1108.89,731.32,1102.45,731.94Z" transform="translate(-780.61 -348.08)" style="fill:#fcb341"/><path d="M815.88,493.7c0-43.42.12-86.85-.11-130.27,0-7.13,1.92-12.33,8.55-15.35h208.41c7.73,2.4,9.82,5.22,9.91,13.49q.1,7.83,0,15.68a7.43,7.43,0,0,1-.67,4c-2.08,2-3.24,0-4.6-1.07-1.84-1.46-2.69-4.32-5.76-4.06-33.74-.17-67.47,0-101.2-.06q-27.17,0-54.34,0a63.22,63.22,0,0,0-9.33.51c-6.91-1.36-13.88-.88-20.72.07-5.53.77-9.59,6.43-10.13,12.5-.14,1.62-.1,3.24-.1,4.87v90.24c0,.87,0,1.75,0,2.62.15,4.1.82,4.82,4.83,4.93,3.37.1,6.74,0,10.11.06,1.48,0,3-.12,4.36.77a2.17,2.17,0,0,1,.83,1.08c-7,.77-14.08.26-21.13.31C828.5,494,822.19,493.81,815.88,493.7Z" transform="translate(-780.61 -348.08)" style="fill:#60b6fe"/><path d="M1103.88,532.42c6.12,0,12.24-.24,18.35-.09,9.39.23,15.5,6.57,15.51,16.07q.08,40.08,0,80.17c0,28-.23,55.95.13,83.91.12,9.57-3.07,16.14-12.2,19.46h-23.24c3.06-2.38,7.35-3.06,9-7.38a26.13,26.13,0,0,0,2.23-9.73q-.07-82.47,0-164.94c0-7.19-2.72-12.35-8.53-16.19A10.92,10.92,0,0,1,1103.88,532.42Z" transform="translate(-780.61 -348.08)" style="fill:#fda513"/><path d="M1041,381.75c0-6-.44-12,0-18,.53-7.18-1.92-12.37-8.29-15.7H1056c6.77,2.77,9.11,7.91,9,15.06-.3,13.92-.09,27.85-.09,41.77-1.9,1-3-.41-4.15-1.49-6.1-6-12.07-12.06-18.09-18.09C1041.62,384.34,1040.77,383.28,1041,381.75Z" transform="translate(-780.61 -348.08)" style="fill:#26a5fd"/><path d="M855.93,493.69l-.28-.21c-1.49-1.29-1.52-3.07-1.52-4.82,0-32.93-.14-65.87,0-98.8.05-7.88,4.48-13.61,11-15.05a2.17,2.17,0,0,1,1.08.14,29.26,29.26,0,0,1,7.4-.81q77.65,0,155.29,0c1.49,0,3,.23,4.45.35,1.81,2.19,1.82,4.81,1.82,7.44,0,13.58.36,27.17-.12,40.73a15.14,15.14,0,0,0,16.07,16c6.59-.33,13.2-.14,19.8,0,1.83,0,3.8-.2,5.18,1.51,1.05,1.67,1,3.56,1,5.43,0,26.9.07,53.81-.05,80.71,0,2.47.84,6-3.68,5.75-1.74.08-3.48.24-5.23.24H917.93c-1.62,0-3.24.06-4.86.09a11.47,11.47,0,0,1-2-1.11c-3.61-4.09-5.33-9.21-7.59-14a2.32,2.32,0,0,1,1.18-3.18c2.45-.75,5-.5,7.45-.51q70.44,0,140.9,0a43.15,43.15,0,0,0,6.73-.21c2.36-.38,4.52-1.31,4.49-4.14s-2.1-3.76-4.53-4.05a47.83,47.83,0,0,0-5.62-.14H906.81a28.92,28.92,0,0,1-7.82-.56c-.59-.09-1.37,0-1.73-.48-3-3.8-6.81-6.76-10.53-9.8-7.54-.8-15.1-.29-22.64-.27C861.36,493.89,858.64,494.23,855.93,493.69Z" transform="translate(-780.61 -348.08)" style="fill:#e9f5fe"/><path d="M1073.43,532c2.43-.55,2-2.49,2-4.19q0-43.74,0-87.48a2.81,2.81,0,0,1,2.71-1.6c6.87,0,13.78-1,20.58.77,1.11,1.43.71,3.11.71,4.69q0,43.92,0,87.83C1090.79,532.41,1082.11,532.46,1073.43,532Z" transform="translate(-780.61 -348.08)" style="fill:#d7ebfd"/><path d="M886.73,494.15c6.18.12,8.62,4.76,11.18,9.26A13.41,13.41,0,0,1,904,515.19q4,7.89,8,15.8c-.25,2.06-1.85,1-2.8,1.08-1.78.07-3.6.38-5.36-.23-4.43,1.25-8.94.46-13.41.57-1.63,0-2.32-1.22-3-2.47-5-9.51-10-19-15-28.51-1.31-2.51-2.31-5.24-5.06-7.28Z" transform="translate(-780.61 -348.08)" style="fill:#fda513"/><path d="M903.89,531.84c2.7-.46,5.57.72,8.16-.85l1,1.38C910,532.31,906.88,533.16,903.89,531.84Z" transform="translate(-780.61 -348.08)" style="fill:#f7bd58"/><path d="M1098.72,439.53c-2.3,1.44-4.85.66-7.28.73-5.33.14-10.67.07-16,.1-8.5,0-17,0-25.48-.07-9.88-.05-16.5-6.6-16.52-16.37q-.06-24.74,0-49.47c3,1.94,5.06,4.9,7.64,7.3q10.32,10.32,20.64,20.63c1,1,1.79,2.11,3.18,2.53,1.72,2.8,4.32,4.79,6.58,7.08Q1085,425.8,1098.72,439.53Z" transform="translate(-780.61 -348.08)" style="fill:#b2d9fd"/><path d="M866.23,375c-7.21,3.19-10.43,8.79-10.42,16.61q.09,48.72,0,97.44c0,1.5-.12,3-.18,4.48-6,0-12-.08-18,0-2.42,0-3.65-.54-3.65-3.31.07-33.74,0-67.47.12-101.21a14.91,14.91,0,0,1,15-14.64C854.84,374.38,860.59,373.47,866.23,375Z" transform="translate(-780.61 -348.08)" style="fill:#26a5fd"/><path d="M977.48,476.47H896.17c-4.77,0-6.88-1.36-7.4-4.61a5.63,5.63,0,0,1,5-6.71,24.49,24.49,0,0,1,3.74-.11q80.19,0,160.37,0a18.74,18.74,0,0,1,4.11.18c3,.71,4.81,2.6,4.64,5.87s-1.95,5-5.17,5.31c-1.24.11-2.49.07-3.74.07Z" transform="translate(-780.61 -348.08)" style="fill:#81ade2"/><path d="M904,515.19l-6.12-11.78q81,0,161.9-.05c4.39,0,6.76,2.15,6.8,5.79s-2.26,5.72-6.67,6c-1.25.07-2.5,0-3.75,0Z" transform="translate(-780.61 -348.08)" style="fill:#82aee2"/></svg>