<svg id="Layer_1" data-name="Layer 1" xmlns="http://www.w3.org/2000/svg" viewBox="0 0 383.86 376.45"><path d="M1151.93,421.55c-1.94,4.29-5.29,5.66-9.91,5.56-9.2-.2-18.4,0-27.6.07-1.59,1-3.37.84-5.11.84-97.24.08-194.48-.29-291.72-.17a9.8,9.8,0,0,1-4.42-.57c-11.21-.28-22.43,0-33.64-.13-1.36,0-2.74.25-4.07-.26a31.2,31.2,0,0,1-.15-18c.87-3.33,3.94-5,7.4-5.58a37.31,37.31,0,0,1,6-.24q178,0,356,0c2.44,0,5-.56,7.22,1.2Z" transform="translate(-768.07 -351.79)" style="fill:#30455c"/><path d="M1151.93,404.31H786.5c-8.45,0-10.94,2.46-10.93,10.86,0,3.87,0,7.75,0,11.62-.24.42-.66.33-1,.36-3.11-.36-4.78-2.64-6.51-4.85V402.06c1.45-1.83,2.37-4.26,5.18-4.53,1.31-.63,2.71-.32,4.06-.32,36,0,71.93.59,107.87-.16,48.66-1,97.33-.82,146-.33,37.68.38,75.35.09,113,.48a4.69,4.69,0,0,1,2.56.33c2.82.25,3.71,2.72,5.18,4.53Z" transform="translate(-768.07 -351.79)" style="fill:#374f68"/><path d="M1077,728.07c-1.12,0-2.24.11-3.36.11H846.81c-1.24,0-2.49-.09-3.74-.14-1.71-1.9-1.2-4.25-1.21-6.44q0-45.89,0-91.77V447.05c0-8.4.25-8.54,8.74-9.46,25.81-2.8,51.6-5.75,77.41-8.56,6.93-.76,13.88-1.33,20.84-1.77,18.38-.7,36.64.81,54.87,3,19.34,2.33,38.72,4.25,58,6.56,9.57,1.14,15.11,6.65,16.22,16.19a43.77,43.77,0,0,1,.18,5.24q0,131.49,0,263C1078.12,723.54,1078.69,726,1077,728.07Z" transform="translate(-768.07 -351.79)" style="fill:#f06573"/><path d="M1077,728.07q0-136.19,0-272.37c0-9.17-4.79-16-12.67-17.44-4.86-.9-9.84-1.16-14.77-1.72-10.58-1.2-21.16-2.44-31.75-3.6-7.77-.85-15.54-1.56-23.31-2.41s-15.73-2.13-23.63-2.65c-7.33-.49-14.71-.22-22.08-.28-7.69.63-15.39,1.15-23.1,1.16q-53,0-106,0c-2.2,0-4.54.49-6.47-1.16l-.16-.27.14-.24c1.37-.06,2.74-.18,4.11-.18q146.54,0,293.06,0c1.36,0,2.72.16,4.09.25q0,134.73.09,269.45c0,18.84-15.1,32.56-31.56,31.56C1081,728.07,1079,728.1,1077,728.07Z" transform="translate(-768.07 -351.79)" style="fill:#da5669"/><path d="M813.18,427.59H948.75c-5.41,1.35-11,1.46-16.47,2.16-10.44,1.32-20.91,2.45-31.37,3.62-7.51.84-15,1.58-22.55,2.42-8.24.92-16.48,1.9-24.72,2.84-2.71.31-5.42.76-8.14.85-2.07.06-2.6,1-2.45,2.81,0,.37,0,.75,0,1.12q0,142.32,0,284.62c-13.11.73-26.6-10-29.22-23.19a37.38,37.38,0,0,1-.82-7.41q.06-133.43,0-266.86C813.07,429.59,813.14,428.59,813.18,427.59Z" transform="translate(-768.07 -351.79)" style="fill:#f87a8c"/><path d="M813.16,427.08l-.14.24-38.45-.17,1-.36Z" transform="translate(-768.07 -351.79)" style="fill:#f87a8c"/><path d="M1028.23,359.32c6.59,4.86,9.84,11.64,10.48,19.56.49,5.91.22,11.88.28,17.82-1.11.86-2.4.45-3.6.45-18.77,0-37.53,0-56.3.05-2.24,0-4.44-.54-6.68-.39-12.23-.18-24.33-1.89-36.49-3-3.72-.33-7.44-.7-11.16-1.19-7.75-1-13.66-6.39-15-13.65-1.17-6.64,2.43-13.18,9.23-16.92a30.87,30.87,0,0,1,15.06-3.87h88.73C1024.71,358.18,1026.58,358.21,1028.23,359.32Z" transform="translate(-768.07 -351.79)" style="fill:#374f68"/><path d="M1028.23,359.32c-31.69,0-63.39-.05-95.08.05-6.78,0-13,2.1-18,6.94-4.61,4.45-5.71,9.88-3.33,15.66s6.92,8.94,13.18,9.59c14,1.47,28.07,3,42.11,4.41,1.6.16,3.24.07,4.86.09,0,1.46-1.11,1.09-1.88,1.09q-40.51,0-81,0a2.66,2.66,0,0,1-1.05-.35c.61-6.33-.08-12.69.66-19,1.61-13.86,14.5-25.9,28.4-25.92,31.07-.06,62.13-.11,93.2,0C1017.11,351.93,1023.44,354,1028.23,359.32Z" transform="translate(-768.07 -351.79)" style="fill:#46617a"/><path d="M888,396.81q39.84,0,79.69,0c1.43,0,3,.58,4.26-.72,22.32,1.57,44.67.47,67,.64l79.2.12c8.22,0,16.44,0,24.66,0,1.31,0,2.76-.45,3.9.69H773.25c1.4-1.25,3.1-.68,4.66-.69Q833,396.8,888,396.81Z" transform="translate(-768.07 -351.79)" style="fill:#3f566d"/><path d="M979.49,577.51q0,44,0,88c0,6.9-3.13,10.09-10,10.15-4.24,0-8.49,0-12.73,0-6.4,0-9.91-3.41-10.23-9.81,0-.62,0-1.24,0-1.87q0-86.53,0-173.06a15,15,0,0,1,1.08-6.2c1.33-3,3.47-4.78,6.93-4.74,5.5.05,11,0,16.49,0,5.31,0,8.51,3.29,8.51,8.71Q979.51,533.13,979.49,577.51Z" transform="translate(-768.07 -351.79)" style="fill:#db576a"/><path d="M1023,577.5V489.09c0-6.91,2.2-9.07,9.23-9.07,5,0,10,0,15,0s7.84,2.93,8,7.82c0,.75,0,1.5,0,2.25V665.79c0,6.84-3.11,9.9-10.07,9.91-4.37,0-8.75,0-13.11,0-5.7-.06-9.06-3.43-9.07-9Z" transform="translate(-768.07 -351.79)" style="fill:#db596b"/><path d="M903.76,662.21c0,1.5.07,3,0,4.5-.25,5.07-3.71,8.75-8.73,8.94s-10.24.16-15.36,0c-4.46-.13-7.25-2.57-8.13-6.7-.7-1.42-.34-3-.34-4.42q0-84.57,0-169.16c.14-3,.9-5.8,3.68-7.52,1.17-.72,2.5-1.84,3.55.23-3.37,3.54-3.51,7.88-3.5,12.48q.14,77.09.05,154.17c0,1.25,0,2.5,0,3.75.08,6.21,1.55,7.7,7.77,7.78,3.36.05,6.74-.14,10.1.05,3.95.22,6.76-1.25,8.44-4.83a3.27,3.27,0,0,1,1-.94C903.64,660.25,903.15,661.74,903.76,662.21Z" transform="translate(-768.07 -351.79)" style="fill:#da5669"/><path d="M878.35,487.55c-4.23.25-5.34,3.68-6.82,6.72a20.12,20.12,0,0,1,0-8.25c1.55-4.61,3.4-6,8.16-6s9.49,0,14.23,0c6.65,0,9.82,3.14,9.85,9.76v3c-.63.43-.1,1.7-1.27,1.72a1.9,1.9,0,0,1-1-.73c-1.69-3.94-4.71-5.46-8.93-5.22-3.34.19-6.71.08-10.06,0C881.1,488.53,879.54,488.77,878.35,487.55Z" transform="translate(-768.07 -351.79)" style="fill:#da5669"/><path d="M871.53,486V669c-1.21-1.11-.72-2.57-.72-3.89q0-87.59,0-175.16C870.81,488.59,870.31,487.13,871.53,486Z" transform="translate(-768.07 -351.79)" style="fill:#dd586a"/><path d="M903,494.27a1.58,1.58,0,0,1,.75-1.5q0,84.72,0,169.44a1.57,1.57,0,0,1-.74-1.5c-1.22-1.34-1-3-1-4.62q0-78.6,0-157.2C902,497.28,901.8,495.61,903,494.27Z" transform="translate(-768.07 -351.79)" style="fill:#e06e7d"/><path d="M978.12,577.88q0,40.1,0,80.19c0,7.43-2.16,9.6-9.52,9.62-4.25,0-8.5.09-12.74-.06s-6.87-2.85-7.13-7.1c-.05-1,0-2,0-3v-160c0-7.93,2.07-10,9.92-10,3.63,0,7.25,0,10.87,0,6.07,0,8.6,2.52,8.61,8.69q0,28.09,0,56.2Z" transform="translate(-768.07 -351.79)" style="fill:#fefefe"/><path d="M1053.82,577.48q0,40.49,0,81c0,6.95-2.24,9.2-9.14,9.24-4.38,0-8.75.08-13.12-.05-4.66-.15-7-2.6-7.29-7.24,0-.75,0-1.5,0-2.25V497.35c0-.87,0-1.75,0-2.62.29-4.47,3-7.13,7.42-7.21s9.24,0,13.86,0c5.58,0,8.24,2.66,8.25,8.27Q1053.86,536.63,1053.82,577.48Z" transform="translate(-768.07 -351.79)" style="fill:#fefefe"/><path d="M878.35,487.55c5.11,0,10.22-.06,15.33-.05,5.3,0,7.24,1.53,8.7,6.76a8.51,8.51,0,0,1,.25,3.33q0,79.91,0,159.79a9.17,9.17,0,0,1-.23,3.34c-1.3,5.34-3.17,6.91-8.52,7-4.24,0-8.48.08-12.72,0-5-.11-7.43-2.56-7.64-7.66,0-.62,0-1.25,0-1.87q0-80.48-.06-160.95C873.44,492.94,874.42,489.6,878.35,487.55Z" transform="translate(-768.07 -351.79)" style="fill:#fefefe"/><path d="M902.4,660.72c0-1.49-.12-3-.12-4.48q0-78.75,0-157.5c0-1.49.07-3,.1-4.48H903V660.71Z" transform="translate(-768.07 -351.79)" style="fill:#de6778"/></svg>