<svg id="Layer_1" data-name="Layer 1" xmlns="http://www.w3.org/2000/svg" viewBox="0 0 383.85 383.85"><defs><style>.cls-1{fill:#d70027;}.cls-2{fill:#d91639;}.cls-3{fill:#da173a;}.cls-4{fill:#da1b3d;}.cls-5{fill:#d9173a;}.cls-6{fill:#e4657c;}.cls-7{fill:#e98597;}.cls-8{fill:#e88496;}.cls-9{fill:#e57084;}.cls-10{fill:#e57286;}.cls-11{fill:#ea8d9d;}.cls-12{fill:#ea8b9c;}.cls-13{fill:#e67185;}.cls-14{fill:#e57185;}.cls-15{fill:#efefef;}.cls-16{fill:#0052b3;}</style></defs><path class="cls-1" d="M950.25,348.07h2.25a10.06,10.06,0,0,0,6,0h3a10.06,10.06,0,0,0,6,0h2.25c.61.6,1.39.3,2.09.38s1.19.12,1.65-.38H975c2.59.79,5.3.18,7.91.73.94.2,2,.09,2.59,1,1.35,2.45.9,5.13.9,7.72q0,73.63,0,147.27c0,8.76,0,8.77,8.63,8.77q73.64,0,147.27,0c2.6,0,5.27-.42,7.74.83,1.88,1.73,1,4.14,1.47,6.22.28,1.17-.29,2.45.41,3.6v2.25c-.46.41-.36,1-.38,1.5s-.08,1.08.38,1.49v3a7.88,7.88,0,0,0,0,5.25v4.5a7.88,7.88,0,0,0,0,5.25v3a1,1,0,0,0,0,1.5v3.74c-.73,2.35-.26,4.82-.73,7.19-.19,1-.1,2-1.06,2.58-2.46,1.32-5.14.88-7.73.88q-73.64,0-147.27,0c-8.72,0-8.73,0-8.73,8.67q0,73.63,0,147.27c0,2.6.43,5.27-.85,7.73-1.89,1.86-4.38,1-6.59,1.45-1.29.26-2.69-.32-4,.4h-3a1,1,0,0,0-1.5,0h-3.75a7.88,7.88,0,0,0-5.25,0h-3a10.06,10.06,0,0,0-6,0h-3a1,1,0,0,0-1.5,0h-3.74c-2.35-.73-4.81-.25-7.19-.73-1-.19-2-.1-2.58-1.06-1.32-2.46-.88-5.14-.88-7.73q0-73.62,0-147.25c0-8.74,0-8.75-8.65-8.75q-73.62,0-147.25,0c-2.6,0-5.27.42-7.74-.83-1.88-1.73-1-4.14-1.47-6.22-.28-1.16.29-2.45-.41-3.6V552a1,1,0,0,0,0-1.5v-3a7.88,7.88,0,0,0,0-5.25v-4.5a7.88,7.88,0,0,0,0-5.25v-3c.46-.41.36-1,.38-1.49s.08-1.09-.38-1.5v-3c1-2.93-.31-6.34,1.83-9,2.47-1.29,5.14-.86,7.73-.86q73.61,0,147.21,0c8.74,0,8.75,0,8.75-8.65q0-73.6,0-147.21c0-2.59-.41-5.26.8-7.74,1.57-1.94,3.92-.94,5.86-1.5,1-.31,2.22.25,3.24-.42h3c.46.5,1.08.34,1.65.38S949.64,348.67,950.25,348.07Z" transform="translate(-768.07 -348.07)"/><path class="cls-2" d="M958.5,348.07a5.71,5.71,0,0,1-6,0Z" transform="translate(-768.07 -348.07)"/><path class="cls-2" d="M967.5,348.07a5.71,5.71,0,0,1-6,0Z" transform="translate(-768.07 -348.07)"/><path class="cls-3" d="M952.5,731.93a5.71,5.71,0,0,1,6,0Z" transform="translate(-768.07 -348.07)"/><path class="cls-4" d="M1151.93,537.75a4.57,4.57,0,0,1,0-5.25Z" transform="translate(-768.07 -348.07)"/><path class="cls-5" d="M768.07,542.25a4.55,4.55,0,0,1,0,5.25Z" transform="translate(-768.07 -348.07)"/><path class="cls-4" d="M1151.93,547.5a4.57,4.57,0,0,1,0-5.25Z" transform="translate(-768.07 -348.07)"/><path class="cls-5" d="M768.07,532.5a4.55,4.55,0,0,1,0,5.25Z" transform="translate(-768.07 -348.07)"/><path class="cls-3" d="M961.5,731.93a4.57,4.57,0,0,1,5.25,0Z" transform="translate(-768.07 -348.07)"/><path class="cls-6" d="M950.25,348.07c-.55.92-1.43.75-2.27.67-.49-.25-.48-.47,0-.67Z" transform="translate(-768.07 -348.07)"/><path class="cls-6" d="M972,348.73c-.84.09-1.72.26-2.27-.66H972C972.5,348.27,972.51,348.49,972,348.73Z" transform="translate(-768.07 -348.07)"/><path class="cls-7" d="M948,348.07a5,5,0,0,1,0,.67c-.62.06-1.27.18-1.47-.67Z" transform="translate(-768.07 -348.07)"/><path class="cls-8" d="M972,348.73a4.8,4.8,0,0,1,0-.66h1.49C973.29,348.92,972.64,348.8,972,348.73Z" transform="translate(-768.07 -348.07)"/><path class="cls-9" d="M768.07,550.5c.8.5.91,1,0,1.5Z" transform="translate(-768.07 -348.07)"/><path class="cls-10" d="M1151.93,552c-.92-.5-.81-1,0-1.5Z" transform="translate(-768.07 -348.07)"/><path class="cls-9" d="M768.7,528c.1.64.06,1.22-.63,1.53V528C768.26,527.56,768.47,527.57,768.7,528Z" transform="translate(-768.07 -348.07)"/><path class="cls-11" d="M1151.31,528c-.08-.61-.21-1.24.62-1.46V528C1151.69,528.52,1151.49,528.51,1151.31,528Z" transform="translate(-768.07 -348.07)"/><path class="cls-12" d="M768.7,528a4.44,4.44,0,0,0-.63,0v-1.5C768.9,526.73,768.78,527.36,768.7,528Z" transform="translate(-768.07 -348.07)"/><path class="cls-10" d="M1151.31,528a4.4,4.4,0,0,1,.62,0v1.49C1151.22,529.2,1151.19,528.61,1151.31,528Z" transform="translate(-768.07 -348.07)"/><path class="cls-13" d="M948,731.93c.5-.91,1-.81,1.5,0Z" transform="translate(-768.07 -348.07)"/><path class="cls-14" d="M970.5,731.93c.5-.81,1-.91,1.5,0Z" transform="translate(-768.07 -348.07)"/><path class="cls-15" d="M1150.41,564.71c-1.5,8.56-2.47,17.24-5.27,25.53-1.76,1.91-4.09,1.57-6.31,1.58h-84.28a16.39,16.39,0,0,0-3.86.16c-.09,1.15.88,1.64,1.5,2.26q28.35,28.34,56.68,56.68c1.59,1.58,3.26,3.1,4.07,5.28-2.08,2.22-3.59,4.95-6.1,6.78-2.77.56-4-1.65-5.54-3.16q-23-22.85-45.83-45.79c-6.54-6.53-13.1-13-19.57-19.62a8.32,8.32,0,0,0-6.64-2.7c-4.72.14-9.44,0-14.32,0,.54,1.63,1.76,2.35,2.69,3.27l74.65,74.7c1.64,1.64,3.72,3.08,3.6,5.84-6.44,5.92-12.75,12-19.67,17.36-2.18-.81-3.69-2.48-5.28-4.07q-28.18-28.23-56.41-56.42a5.89,5.89,0,0,0-2.33-1.88c-.74,1.29-.34,2.68-.35,4q0,42.13,0,84.28c0,2.22.33,4.55-1.58,6.31-8.32,2.7-16.93,3.93-25.53,5.26.09-1.61.26-3.22.26-4.84q0-78.08-.07-156.14c0-3.62.92-4.53,4.53-4.52q78.06.18,156.14.07C1147.18,565,1148.8,564.8,1150.41,564.71Z" transform="translate(-768.07 -348.07)"/><path class="cls-15" d="M824.89,676.49c-5.94-6.76-12.35-13.11-17.83-20.27.81-2.18,2.48-3.7,4.07-5.29q28.23-28.18,56.42-56.41a6.24,6.24,0,0,0,1.9-2.33c-1.28-.74-2.67-.34-4-.34q-42.13,0-84.29,0c-2.22,0-4.55.33-6.31-1.58-2.38-6.72-3.21-13.78-4.51-20.74-.3-1.59-.51-3.19-.76-4.79,1.61.09,3.23.27,4.84.27q78.08,0,156.14-.07c3.61,0,4.54.9,4.53,4.52q-.18,78.06-.07,156.14c0,1.62.17,3.23.26,4.84-8.56-1.5-17.24-2.47-25.53-5.27-1.91-1.76-1.57-4.09-1.57-6.31q0-42.14,0-84.27a16.45,16.45,0,0,0-.16-3.87c-1.14-.08-1.64.88-2.26,1.5q-28.34,28.35-56.67,56.68c-1.59,1.59-3.1,3.26-5.29,4.07-2-2.31-5.07-3.46-6.78-6.1-.57-2.6,1.47-3.84,2.9-5.28q21.27-21.37,42.63-42.67c7-7,13.82-14.09,21-20.87,3.42-3.23,5.33-6.59,4.81-11.44-.42-3.83,0-7.73-.14-11.94a16.77,16.77,0,0,0-3.06,2.8Q867.38,635.18,829.64,673A15,15,0,0,1,824.89,676.49Z" transform="translate(-768.07 -348.07)"/><path class="cls-15" d="M909.76,354.86c8.29-2.8,17-3.77,25.53-5.27-.09,1.61-.26,3.23-.26,4.84q0,78.07.07,156.15c0,3.61-.92,4.52-4.53,4.52q-78.08-.2-156.14-.08c-1.62,0-3.23.18-4.84.27,1.51-8.56,2.46-17.24,5.27-25.53,1.76-1.91,4.09-1.57,6.32-1.57q42.14,0,84.29,0a16.57,16.57,0,0,0,4-.19,5.44,5.44,0,0,0-1.94-2.49q-28.35-28.33-56.69-56.68a14.54,14.54,0,0,1-3.8-5c2.09-2.2,3.58-4.95,6.11-6.77,2.76-.56,4,1.66,5.53,3.17q23.49,23.37,46.88,46.83c6.18,6.18,12.39,12.32,18.52,18.55a8.37,8.37,0,0,0,6.63,2.73c5-.14,10,0,15.33-.05A14.85,14.85,0,0,0,903.2,485q-37.69-37.75-75.43-75.46c-1.48-1.48-3.27-2.8-3.46-5.16a242.49,242.49,0,0,1,19.47-17.34c2.18.81,3.7,2.48,5.29,4.07q28.18,28.23,56.41,56.43a12.22,12.22,0,0,0,2.27,2c.8-1.38.4-2.77.41-4.09q0-42.13,0-84.29C908.19,359,907.85,356.62,909.76,354.86Z" transform="translate(-768.07 -348.07)"/><path class="cls-15" d="M1095.36,404.94c5.36,3.87,9.35,9.07,13.6,14,1.36,1.58,2.66,3.23,4,4.84-.81,2.18-2.48,3.7-4.07,5.28q-28.23,28.19-56.42,56.41a5.94,5.94,0,0,0-1.88,2.33c1.28.74,2.67.34,4,.35q42.15,0,84.28,0c2.22,0,4.55-.34,6.31,1.57,2.8,8.29,3.77,17,5.27,25.53-1.61-.09-3.23-.27-4.84-.27q-78.08,0-156.14.08c-3.61,0-4.54-.91-4.53-4.52q.18-78.07.07-156.15c0-1.61-.17-3.23-.26-4.84,8.6,1.33,17.21,2.56,25.53,5.26,1.91,1.76,1.57,4.09,1.58,6.32q0,42.15,0,84.3a16.57,16.57,0,0,0,.19,4,5.44,5.44,0,0,0,2.49-1.94q28.34-28.35,56.69-56.7a14.42,14.42,0,0,1,5-3.79c2.19,2.1,4.94,3.58,6.76,6.11.56,2.76-1.66,4-3.16,5.53q-22.85,22.95-45.77,45.81c-6.53,6.54-13,13.1-19.61,19.57a8.34,8.34,0,0,0-2.74,6.63c.16,5,0,10,.08,15.28a12.24,12.24,0,0,0,3.16-2.77q37.48-37.43,74.94-74.88C1091.42,406.82,1092.67,404.67,1095.36,404.94Z" transform="translate(-768.07 -348.07)"/><path class="cls-16" d="M774.86,590.24l97.69-.08a6.48,6.48,0,0,1,1.32.38c-1,1.08-1.8,2-2.64,2.81q-30.3,30.31-60.64,60.59c-1,1-1.61,2.69-3.53,2.28-12.67-17.42-23-36.07-29.53-56.67C776.55,596.47,775.75,593.35,774.86,590.24Z" transform="translate(-768.07 -348.07)"/><path class="cls-16" d="M843.79,692.94c-.43-1.24.53-1.81,1.21-2.49q31.62-31.63,63.25-63.26c.32-.31.69-.57,1.24-1a6.54,6.54,0,0,1,.36,1.28q0,48.84-.09,97.68A186.47,186.47,0,0,1,849.61,697Z" transform="translate(-768.07 -348.07)"/><path class="cls-1" d="M824.89,676.49c-.48-1.23.45-1.82,1.14-2.51q41.29-41.29,82.6-82.56a3,3,0,0,1,.68-.39c1.09,1,.53,2.32.53,3.46,0,6.36,1.66,13.43-.58,18.88s-8.35,9.32-12.84,13.81Q868,655.67,839.53,684.1c-.88.88-1.68,1.82-2.52,2.74C832.35,684.11,829.07,679.77,824.89,676.49Z" transform="translate(-768.07 -348.07)"/><path class="cls-16" d="M1010.24,725.15q0-48.85-.09-97.7a4.41,4.41,0,0,1,.28-1c1.31.3,1.88,1.32,2.63,2.07q30.6,30.56,61.14,61.16c.9.89,2.47,1.5,2,3.27-15.49,11.22-31.9,20.75-50,27.22A131.7,131.7,0,0,1,1010.24,725.15Z" transform="translate(-768.07 -348.07)"/><path class="cls-16" d="M1112.94,656.21c-1.24.45-1.81-.53-2.49-1.21l-63.25-63.24c-.32-.32-.57-.69-1.25-1.52h99.19a185.69,185.69,0,0,1-28.39,60.46C1115.46,652.53,1114.21,654.37,1112.94,656.21Z" transform="translate(-768.07 -348.07)"/><path class="cls-1" d="M1095.88,675.58c-4.9-4.81-9.83-9.58-14.69-14.43l-67.33-67.27c-1-1-2.06-1.81-3.49-3.06,3.21-1.21,5.9-.61,8.5-.64,5-.07,10.51-1.23,14.82.52,4.16,1.7,7.08,6.46,10.53,9.9l59.88,59.87c.88.88,1.82,1.68,2.74,2.52C1103.92,667.82,1099.55,671.4,1095.88,675.58Z" transform="translate(-768.07 -348.07)"/><path class="cls-16" d="M1076.23,387.06c.42,1.23-.53,1.81-1.21,2.49q-31.63,31.65-63.27,63.27a14.36,14.36,0,0,1-1.24,1,6.54,6.54,0,0,1-.36-1.28q0-48.84.09-97.7c22.58,5.81,43.09,16,62,29.45C1073.57,385.24,1074.9,386.14,1076.23,387.06Z" transform="translate(-768.07 -348.07)"/><path class="cls-16" d="M1145.14,489.76l-97.67.08a6.69,6.69,0,0,1-1.34-.37c1-1.08,1.81-2,2.65-2.81q30.43-30.43,60.89-60.85c.89-.89,1.5-2.46,3.27-2,10.83,15,20.13,30.81,26.56,48.22A138.11,138.11,0,0,1,1145.14,489.76Z" transform="translate(-768.07 -348.07)"/><path class="cls-1" d="M1095.36,404.94c-1,.91-2.06,1.78-3,2.74Q1053,447,1013.71,486.33a28.27,28.27,0,0,0-2.46,3.25l-1.08-.58c0-7.39,0-14.78,0-22.18,0-1.35,1.4-2,2.25-2.85l68-68.06c.88-.88,1.67-1.83,2.51-2.74C1087.65,396.52,1092.25,400,1095.36,404.94Z" transform="translate(-768.07 -348.07)"/><path class="cls-16" d="M807.06,423.78c1.23-.44,1.81.52,2.49,1.2q31.65,31.62,63.26,63.26c.32.32.58.7,1.25,1.52h-99.2c5.85-22.7,16.06-43.31,29.67-62.31C805.4,426.25,806.22,425,807.06,423.78Z" transform="translate(-768.07 -348.07)"/><path class="cls-16" d="M909.76,354.86q0,48.84.09,97.68a7.17,7.17,0,0,1-.38,1.35c-1-.94-1.79-1.65-2.54-2.41q-30.57-30.56-61.12-61.15c-.89-.9-2.45-1.51-2-3.27,15.68-11.39,32.36-20.95,50.67-27.49A123.62,123.62,0,0,1,909.76,354.86Z" transform="translate(-768.07 -348.07)"/><path class="cls-1" d="M824.31,404.4l85,85.46c-5,0-9.82-.39-14.53.1-6.11.63-10.3-1.54-14.6-5.94-21.22-21.71-42.82-43-64.29-64.5-.87-.87-1.83-1.67-2.74-2.51C816.19,412.2,820.42,408.45,824.31,404.4Z" transform="translate(-768.07 -348.07)"/></svg>