<svg id="Layer_1" data-name="Layer 1" xmlns="http://www.w3.org/2000/svg" viewBox="0 0 383.85 383.85"><defs><style>.cls-1{fill:#0052b3;}.cls-2{fill:#efefef;}.cls-3{fill:#d70027;}.cls-4{fill:#f6f6f6;}.cls-5{fill:#f8f8f8;}.cls-6{fill:#1560b9;}.cls-7{fill:#da193c;}.cls-8{fill:#da1a3d;}.cls-9{fill:#1661b9;}.cls-10{fill:#e78193;}.cls-11{fill:#8db0db;}.cls-12{fill:#6c99d0;}.cls-13{fill:#7ba4d5;}.cls-14{fill:#e78092;}.cls-15{fill:#e3667d;}.cls-16{fill:#e9899b;}.cls-17{fill:#fed944;}.cls-18{fill:#cdbf59;}</style></defs><path class="cls-1" d="M768.07,540v-3a5.85,5.85,0,0,0,0-4.5v-3.74a1,1,0,0,0,0-1.5v-3.75c1-5.39.62-10.9,1.36-16.3,2.16-15.7,7.06-30.61,13.33-45.08A186.83,186.83,0,0,1,814,413,193.67,193.67,0,0,1,866,370.76,188.62,188.62,0,0,1,923.14,350c6.14-1.14,12.4-1.09,18.6-1.59.84-.06,1.76.28,2.52-.37h2.25c.41.46,1,.36,1.5.38s1.08.08,1.49-.38h3a7.88,7.88,0,0,0,5.25,0H960c1.42,1.13,1.62,2.71,1.62,4.36,0,12.53.27,25.06-.16,37.58q.49,24.75,0,49.5.49,25.13,0,50.26c.41,15.45.15,30.9.14,46.36a6.61,6.61,0,0,1-1.21,4.23c-1.87,1.74-4.23,1.27-6.42,1.28-17.46.07-34.93,0-52.39,0q-63.08,0-126.13,0C772.93,541.63,770.13,542.34,768.07,540Z" transform="translate(-768.07 -348.07)"/><path class="cls-2" d="M768.07,540H955.52c1.49,0,3-.08,4.48-.12,1.53-1.72,3.6-1.51,5.58-1.52,9.86-.06,19.72,0,29.58,0q74.51,0,149,0c2.64,0,5.57-.8,7.76,1.63v7.5c-.8,2.29-.17,4.65-.38,7-.24,10.56-.62,21.11-3.35,31.4-.55,2.09-.68,4.56-3.37,5.37a22.74,22.74,0,0,1-6.31.67H781.65a22.34,22.34,0,0,1-6.31-.62c-2.46-.51-2.8-2.65-3.33-4.53a97,97,0,0,1-3.16-22.16c-.11-2.86-.64-5.71-.4-8.59-.2-2.33.42-4.7-.38-7Z" transform="translate(-768.07 -348.07)"/><path class="cls-3" d="M1151.93,540H964.48c-1.49,0-3-.08-4.48-.12q.06-25,.13-50a4.19,4.19,0,0,1,3.57-1.68c1.75-.06,3.5-.08,5.25-.08h167.89c2.61,0,5.25-.17,7.79.67,2.71.93,3,3.41,3.59,5.67,2.56,9.3,2.86,18.87,3.33,28.42,0,.73-.14,1.5.38,2.15v2.25c-.46.41-.36,1-.38,1.5s-.08,1.08.38,1.49v2.25a7.88,7.88,0,0,0,0,5.25Z" transform="translate(-768.07 -348.07)"/><path class="cls-3" d="M943.51,731.93c-3.6-2-7.66-1.47-11.5-2a191.29,191.29,0,0,1-91-39.29c0-2,1.56-2,2.86-2.17a34.28,34.28,0,0,1,4.86-.15h222.45a32.81,32.81,0,0,1,4.86.15c1.3.2,2.89.16,2.85,2.17a190.32,190.32,0,0,1-102.09,40.58c-.68.07-1.54-.27-1.85.75h-2.25a1,1,0,0,0-1.5,0H966a5.85,5.85,0,0,0-4.5,0h-3a7.88,7.88,0,0,0-5.25,0H949.5a1.73,1.73,0,0,0-2.24,0Z" transform="translate(-768.07 -348.07)"/><path class="cls-2" d="M972,348.07c3.52,1.55,7.34.93,11,1.35a192,192,0,0,1,53.54,14.48c15.69,6.65,30,15.75,43.44,26.1-1.35,2.05-3.51,1.67-5.44,1.69-11.74.09-23.48,0-35.21,0-24.23,0-48.45,0-72.67,0-2.29,0-4.85.57-6.52-1.82q-.07-20.89-.13-41.8Z" transform="translate(-768.07 -348.07)"/><path class="cls-4" d="M1151.93,554.25h-.74c.25-2.25-.66-4.63.74-6.75Z" transform="translate(-768.07 -348.07)"/><path class="cls-5" d="M768.82,555.75h-.75V549C769.47,551.12,768.57,553.5,768.82,555.75Z" transform="translate(-768.07 -348.07)"/><path class="cls-6" d="M957.75,348.07a4.57,4.57,0,0,1-5.25,0Z" transform="translate(-768.07 -348.07)"/><path class="cls-7" d="M1151.93,537.75a4.57,4.57,0,0,1,0-5.25Z" transform="translate(-768.07 -348.07)"/><path class="cls-8" d="M953.25,731.93a4.57,4.57,0,0,1,5.25,0Z" transform="translate(-768.07 -348.07)"/><path class="cls-9" d="M768.07,532.5a3.56,3.56,0,0,1,0,4.5Z" transform="translate(-768.07 -348.07)"/><path class="cls-8" d="M961.5,731.93a3.57,3.57,0,0,1,4.5,0Z" transform="translate(-768.07 -348.07)"/><path class="cls-10" d="M947.26,731.93c.75-1.15,1.5-.89,2.24,0Z" transform="translate(-768.07 -348.07)"/><path class="cls-11" d="M948,348.7c-.61.07-1.23.17-1.46-.63H948C948.52,348.31,948.51,348.52,948,348.7Z" transform="translate(-768.07 -348.07)"/><path class="cls-12" d="M948,348.7c0-.21,0-.42,0-.63h1.49A1.26,1.26,0,0,1,948,348.7Z" transform="translate(-768.07 -348.07)"/><path class="cls-13" d="M768.07,527.26c.94.5.8,1,0,1.5Z" transform="translate(-768.07 -348.07)"/><path class="cls-14" d="M1151.3,528.72c-.07-.61-.15-1.22.63-1.46v1.5C1151.69,529.27,1151.48,529.26,1151.3,528.72Z" transform="translate(-768.07 -348.07)"/><path class="cls-15" d="M1151.3,528.72a4.44,4.44,0,0,1,.63,0v1.49C1151.26,529.93,1151.2,529.36,1151.3,528.72Z" transform="translate(-768.07 -348.07)"/><path class="cls-16" d="M971.25,731.93c.5-.86,1-1,1.5,0Z" transform="translate(-768.07 -348.07)"/><path class="cls-2" d="M1123.47,439.55a180.11,180.11,0,0,1,21.67,50.31h-185v-50a3.64,3.64,0,0,1,3.41-1.9c1.24-.05,2.49-.1,3.74-.1H1116C1118.6,437.87,1121.24,437.77,1123.47,439.55Z" transform="translate(-768.07 -348.07)"/><path class="cls-3" d="M1123.47,439.55c-1.61.1-3.22.3-4.83.3q-79.26,0-158.51,0v-50h115c1.62,0,3.24.08,4.87.12,16.91,14.06,31.58,30.11,43.17,48.88C1123.27,439.09,1123.36,439.33,1123.47,439.55Z" transform="translate(-768.07 -348.07)"/><path class="cls-17" d="M914.29,510c-17.51,13.87-37,17.18-57.7,9.25s-33.49-23.47-36.71-45.49c-5.46-37.41,22.81-68.49,60.55-67.19a55.69,55.69,0,0,1,32.2,11.71c.74.55,1.88.91,1.49,2.61-5-1.49-9.92-3-15.15-3.34-28.1-1.74-51.09,20.21-50.69,48.51.39,27.15,24.51,48.54,52,46.06a64,64,0,0,0,13.09-3C914.22,508.84,914.41,509.28,914.29,510Z" transform="translate(-768.07 -348.07)"/><path class="cls-17" d="M936.47,444.81c-2.5,5.15-4.55,9.77-7,14.2-1.32,2.43-1.12,3.87,1.19,5.52,4.11,3,8,6.26,12.6,9.91-5.63,1.27-10.51,2.48-15.44,3.44-2.7.52-4,1.47-3.76,4.58.34,4.93.09,9.91.09,15.7-4.71-3.77-8.93-7-12.94-10.44-1.7-1.47-2.76-1.35-4.39,0-4,3.4-8.13,6.59-12.94,10.45,0-5.15-.26-9.67.08-14.14.3-4-.58-6.09-5.06-6.55s-8.89-1.93-14-3.12c4.36-3.45,8.13-6.67,12.15-9.53,2.48-1.75,3.08-3.24,1.49-6-2.44-4.32-4.41-8.9-6.93-14.07,5.51,1.27,10.45,2.18,15.24,3.59,3,.89,4.38.14,5.55-2.74,1.85-4.55,4.2-8.91,6.66-14,2.63,5.45,5,10.18,7.18,15,.87,2,1.86,2.48,3.94,1.95C925.35,447.25,930.56,446.16,936.47,444.81Z" transform="translate(-768.07 -348.07)"/><path class="cls-18" d="M914.29,510l-.95-.91c.58-.69,1.7-1.33,2.13-.78C916.3,509.41,914.94,509.62,914.29,510Z" transform="translate(-768.07 -348.07)"/><path class="cls-3" d="M796.63,640.29c-8.61-12.95-14.59-27.12-19.46-41.8-.89-2.71-1.54-5.5-2.31-8.25,1.25,0,2.5-.1,3.74-.1h362.8c1.24,0,2.49.07,3.74.1a172.54,172.54,0,0,1-21.76,50,6.76,6.76,0,0,1-5.14,1.82c-1.25,0-2.5,0-3.74,0q-154.5,0-309,0C802.46,642.11,799.19,642.83,796.63,640.29Z" transform="translate(-768.07 -348.07)"/><path class="cls-2" d="M796.63,640.29c1.12,0,2.24-.15,3.36-.15h320c1.12,0,2.25.1,3.37.15a121.48,121.48,0,0,1-14.72,21.07,197.53,197.53,0,0,1-29.72,29.24c-1.24-.89-2.66-.45-4-.45q-114.94,0-229.89,0c-1.33,0-2.75-.44-4,.45a200.37,200.37,0,0,1-43.51-48.28A14.89,14.89,0,0,1,796.63,640.29Z" transform="translate(-768.07 -348.07)"/></svg>